<svg xmlns="http://www.w3.org/2000/svg" viewBox="0 0 24 24">
    <path fill="none" stroke="#ffd166" stroke-linecap="round" stroke-linejoin="round"
        d="M3.31,17.52A11.45,11.45,0,0,1,.5,10a1,1,0,0,1,0-.25,1,1,0,0,1,0-.25,7,7,0,0,1,7-7,7,7,0,0,1,6.33,4,6.88,6.88,0,0,1,.67,3,6.33,6.33,0,0,1-.86,2.82A15.76,15.76,0,0,1,11.83,15a21,21,0,0,1-3,2.94" />
    <path fill="none" stroke="#ffd166" stroke-linecap="round" stroke-linejoin="round"
        d="M6.2 16.21a20.59 20.59 0 004-4A5.47 5.47 0 0011.5 9.5a3.94 3.94 0 00-1.33-3 4 4 0 00-6.67 3 2 2 0 010 .25 2 2 0 010 .25 8.48 8.48 0 002.7 6.21M8.88 17.9A14.57 14.57 0 016 19.8a5.8 5.8 0 01-2.5.7 1.5 1.5 0 01-.19-3 .59.59 0 01.19 0 5.47 5.47 0 002.7-1.29" />
    <path fill="none" stroke="#ffd166" stroke-linecap="round" stroke-linejoin="round"
        d="M10.21 12.2A6.75 6.75 0 019.5 9.5a6.88 6.88 0 01.67-3M13.64 12.32a18.17 18.17 0 003.8 4.21M14.64 18.08A19 19 0 0111.83 15M20.42 17.83A1.46 1.46 0 0121 19a1.5 1.5 0 01-1.5 1.5A4.82 4.82 0 0117.59 20" />
    <path fill="none" stroke="#ffd166" stroke-linecap="round" stroke-linejoin="round"
        d="M8.88,17.9a8.33,8.33,0,0,0,3.12.6,8.53,8.53,0,0,0,2.64-.42,8.63,8.63,0,0,0,2.8-1.55A8.49,8.49,0,0,0,20.5,10a1,1,0,0,1,0-.25,1,1,0,0,1,0-.25,4,4,0,0,0-6.67-3" />
    <path fill="none" stroke="#ffd166" stroke-linecap="round" stroke-linejoin="round"
        d="M12,4.15A6.9,6.9,0,0,1,16.5,2.5a7,7,0,0,1,7,7,2,2,0,0,1,0,.25,2,2,0,0,1,0,.25,11.48,11.48,0,0,1-3.08,7.83A11.72,11.72,0,0,1,17.59,20,11.49,11.49,0,0,1,12,21.5a11.37,11.37,0,0,1-6-1.7" />
</svg>